<svg width="12" height="12" viewBox="0 0 12 12" fill="none" xmlns="http://www.w3.org/2000/svg">
<path d="M9.90967 5.72343L9.19795 5.19553C9.06593 5.09982 8.87678 5.1228 8.78107 5.25482C8.68077 5.39004 8.70834 5.57599 8.84035 5.6717L9.40652 6.08943L9.07689 7.95882L7.61269 7.70467L8.31874 3.7005C8.45637 2.91995 8.00222 2.43747 7.35437 2.32324L4.23221 1.77272C3.58436 1.65848 2.99258 1.95654 2.85495 2.73708L1.7367 9.07898L1.1513 8.97575C0.991288 8.94754 0.835199 9.05683 0.806985 9.21684C0.778771 9.37685 0.888065 9.53294 1.04808 9.56116L7.68267 10.731C7.84268 10.7592 7.99877 10.6499 8.02699 10.4899C8.0552 10.3299 7.9459 10.1738 7.78589 10.1456L7.20049 10.0424L7.50947 8.29007L9.26637 8.59584C9.43029 8.62474 9.58247 8.51476 9.61069 8.35475L10.0236 6.01313C10.0428 5.90385 9.9983 5.79137 9.90967 5.72343ZM3.70057 3.64673C3.79622 3.10426 4.16236 2.96761 4.56824 3.03918L6.60935 3.39909C7.01133 3.46996 7.30865 3.72359 7.213 4.26607L7.12836 4.7461C7.03339 5.28467 6.66725 5.42132 6.26137 5.34975L4.22416 4.99053C3.81828 4.91897 3.52096 4.66534 3.61661 4.12286L3.70057 3.64673ZM3.52685 5.77299L4.69766 5.97943C4.85767 6.00765 4.96697 6.16374 4.93875 6.32375C4.91054 6.48376 4.75445 6.59305 4.59444 6.56484L3.42363 6.35839C3.26362 6.33018 3.15432 6.17409 3.18254 6.01408C3.21075 5.85407 3.36684 5.74477 3.52685 5.77299Z" fill="#90A3BF"/>
</svg>
