<svg width="12" height="12" viewBox="0 0 12 12" fill="none" xmlns="http://www.w3.org/2000/svg">
<path d="M5.67599 2.19382C4.65348 2.01352 3.67563 2.69822 3.49533 3.72073C3.31848 4.72372 3.95979 5.6738 4.9761 5.88922C5.00801 5.89083 5.03923 5.89633 5.06196 5.90436C5.06976 5.90574 5.07367 5.90643 5.08147 5.9078C5.08538 5.90849 5.08538 5.90849 5.08928 5.90918C6.09456 6.05022 7.02214 5.37678 7.2029 4.37447C7.3832 3.35196 6.6985 2.37411 5.67599 2.19382Z" fill="#90A3BF"/>
<path d="M6.82243 7.28521C5.86158 6.36731 4.08585 6.0542 2.86119 6.58673C2.30705 6.83107 1.95473 7.23171 1.87008 7.71174C1.78544 8.19177 1.98018 8.68485 2.41412 9.09938C2.89581 9.56258 3.58156 9.87263 4.29966 9.99925C5.01776 10.1259 5.7682 10.0691 6.37926 9.79855C6.9295 9.55352 7.28114 9.15679 7.36647 8.67285C7.44721 8.19213 7.25637 7.69974 6.82243 7.28521Z" fill="#90A3BF"/>
<path d="M9.59759 5.03415C9.52653 5.80229 8.87097 6.37078 8.10972 6.32911C8.10582 6.32842 8.10582 6.32842 8.10192 6.32773L8.09021 6.32567C8.06679 6.32154 8.04338 6.31741 8.02249 6.32177C7.64049 6.27454 7.31448 6.09231 7.09222 5.82375C7.55751 5.53558 7.88273 5.03761 7.93912 4.44394C7.96755 4.12301 7.90919 3.81494 7.78863 3.54017C7.95001 3.49216 8.12999 3.47561 8.30836 3.49097C9.08499 3.5595 9.66749 4.24972 9.59759 5.03415Z" fill="#90A3BF"/>
<path d="M9.74159 8.78177C9.64362 9.15483 9.34385 9.43999 8.89874 9.59087C8.47062 9.73671 7.96099 9.75147 7.47522 9.65374C7.80094 9.44961 8.02059 9.1624 8.111 8.83227C8.23535 8.35522 8.08699 7.8502 7.69184 7.39824C7.46683 7.14529 7.19132 6.9277 6.88093 6.74822C7.78746 6.65053 8.84283 7.00965 9.41522 7.6659C9.72335 8.01801 9.84278 8.4133 9.74159 8.78177Z" fill="#90A3BF"/>
</svg>
