<svg width="12" height="12" viewBox="0 0 12 12" fill="none" xmlns="http://www.w3.org/2000/svg">
<g clip-path="url(#clip0_20_7578)">
<path d="M6.42962 2.44981C4.27533 2.06995 2.21862 3.51007 1.83876 5.66436C1.4589 7.81865 2.89902 9.87536 5.05332 10.2552C7.20761 10.6351 9.26431 9.19496 9.64417 7.04066C10.024 4.88637 8.58781 2.83036 6.42962 2.44981Z" fill="#90A3BF"/>
<rect x="3.16983" y="2.67993" width="6.34065" height="6.34065" rx="3.17033" transform="rotate(10 3.16983 2.67993)" fill="white"/>
<path d="M6.1544 4.01097C4.86182 3.78306 3.6278 4.64713 3.39988 5.93971C3.17197 7.23228 4.03604 8.4663 5.32861 8.69422C6.62119 8.92213 7.85521 8.05806 8.08313 6.76549C8.31104 5.47291 7.44931 4.2393 6.1544 4.01097Z" fill="#90A3BF"/>
<rect x="4.45563" y="4.51611" width="3.17033" height="3.17033" rx="1.58516" transform="rotate(10 4.45563 4.51611)" fill="white"/>
<rect x="5.00714" y="8.23505" width="0.792582" height="1.58516" transform="rotate(10 5.00714 8.23505)" fill="#90A3BF"/>
<rect x="7.7616" y="6.30634" width="1.58516" height="0.792582" transform="rotate(10 7.7616 6.30634)" fill="#90A3BF"/>
<rect x="2.29785" y="5.34308" width="1.58516" height="0.792582" transform="rotate(10 2.29785 5.34308)" fill="#90A3BF"/>
</g>
<defs>
<clipPath id="clip0_20_7578">
<rect width="9.51098" height="9.51098" fill="white" transform="translate(1.88388 0.843628) rotate(10)"/>
</clipPath>
</defs>
</svg>
